<!-- icon666.com - MILLIONS vector ICONS FREE --><svg viewBox="0 0 512 512" xmlns="http://www.w3.org/2000/svg"><g id="filled_outline" data-name="filled outline"><path d="m440 416h-224" fill="none" stroke="#000" stroke-linecap="round" stroke-linejoin="round" stroke-width="16"></path><path d="m216 312h48v104h-48z" fill="none" stroke="#000" stroke-linecap="round" stroke-linejoin="round" stroke-width="16"></path><g fill="#eae9e4"><path d="m144 32h328v448h-328z"></path><path d="m240 464-8 16h-88v-232h32l-22.75 40a78.753 78.753 0 0 1 78.75 78.75v68.88a52.424 52.424 0 0 0 5.53 23.44z"></path><path d="m472 98.83v42.34c-.44.5-.89.98-1.37 1.46a32 32 0 1 1 0-45.26c.48.48.93.96 1.37 1.46z"></path></g><path d="m296 280h48v136h-48z" fill="#92d1f7"></path><path d="m232 366.75v49.25h-20v-101.68a78.412 78.412 0 0 1 20 52.43z" fill="#cdccc8"></path><path d="m376 248h48v168h-48z" fill="#91a666"></path><path d="m472 98.83v42.34c-.44.5-.89.98-1.37 1.46a32 32 0 1 1 0-45.26c.48.48.93.96 1.37 1.46z" fill="#dcdbd6"></path><path d="m240 464-8 16h-88v-232h32l-22.75 40a78.753 78.753 0 0 1 78.75 78.75v68.88a52.424 52.424 0 0 0 5.53 23.44z" fill="#dcdbd6"></path><circle cx="448" cy="112" fill="#ee9d0d" r="32"></circle><path d="m106.946 299.784-10.946-43.784h32v32z" fill="#91a666"></path><path d="m212 312h48v104h-48z" fill="#faa6b2"></path><path d="m232 366.75v49.25h-20v-101.68a78.412 78.412 0 0 1 20 52.43z" fill="#ec9da8"></path><path d="m120 248 9.849 49.247 11.349-2.119 26.802-47.128z" fill="#b5cf7f"></path><path d="m224 480h-192l-8-16 2.467-4.933a52.412 52.412 0 0 0 5.533-23.44v-68.879a78.748 78.748 0 0 1 78.748-78.748h34.5a78.748 78.748 0 0 1 78.752 78.748v68.879a52.412 52.412 0 0 0 5.533 23.44l2.467 4.933z" fill="#b5cf7f"></path><path d="m24 366.748v68.879a44.644 44.644 0 0 1 -4.688 19.862l-2.467 4.933a8 8 0 0 0 0 7.156l8 16a8 8 0 0 0 7.155 4.422h440a8 8 0 0 0 8-8v-344a40.009 40.009 0 0 0 0-48v-56a8 8 0 0 0 -8-8h-328a8 8 0 0 0 -8 8v208h-16a7.982 7.982 0 0 0 -7.991 8h-16.009a8 8 0 0 0 -7.761 9.94l5.915 23.66a86.89 86.89 0 0 0 -70.154 85.148zm200-36.362v-10.386h32v88h-24v-41.252a86.233 86.233 0 0 0 -8-36.362zm248-218.386a24 24 0 1 1 -40.971-16.971 24 24 0 0 1 40.971 16.971zm-320-72h312v35.328a40 40 0 1 0 0 73.344v323.328h-227.056l2.211-4.422a8 8 0 0 0 0-7.156l-2.467-4.933a44.644 44.644 0 0 1 -4.688-19.862v-11.627h208a8 8 0 0 0 0-16h-8v-160a8 8 0 0 0 -8-8h-48a8 8 0 0 0 -8 8v160h-16v-128a8 8 0 0 0 -8-8h-48a8 8 0 0 0 -8 8v128h-16v-96a8 8 0 0 0 -8-8h-48a7.992 7.992 0 0 0 -6.945 4.04 86.668 86.668 0 0 0 -50.619-27.04l16.518-29.045a8 8 0 0 0 -6.954-11.955h-16zm152 368v-120h32v120zm80 0v-152h32v152zm-229.753-152-13.647 24h-6.04l-4.8-24zm-39.205 8 3.2 16h-7.493c-.167 0-.333 0-.5.006l-4-16.006zm-4.294 32h34.5a70.828 70.828 0 0 1 70.752 70.748v68.879a60.712 60.712 0 0 0 6.378 27.017l.678 1.356-4 8h-182.112l-4-8 .678-1.356a60.712 60.712 0 0 0 6.378-27.017v-68.879a70.828 70.828 0 0 1 70.748-70.748z"></path><path d="m106.219 435.094a39.311 39.311 0 0 0 13.781 5.774v7.132a8 8 0 0 0 16 0v-7.133a39.29 39.29 0 0 0 13.781-5.773 22.948 22.948 0 0 0 0-38.188l-34.687-23.125a6.948 6.948 0 0 1 0-11.562 23.2 23.2 0 0 1 25.812 0 6.932 6.932 0 0 1 3.094 5.781v8a8 8 0 0 0 16 0v-8a22.9 22.9 0 0 0 -10.219-19.094 39.329 39.329 0 0 0 -13.781-5.774v-7.132a8 8 0 0 0 -16 0v7.132a39.292 39.292 0 0 0 -13.781 5.774 22.948 22.948 0 0 0 0 38.188l34.687 23.125a6.948 6.948 0 0 1 0 11.562 23.2 23.2 0 0 1 -25.812 0 6.932 6.932 0 0 1 -3.094-5.781v-8a8 8 0 0 0 -16 0v8a22.9 22.9 0 0 0 10.219 19.094z"></path><path d="m192 128h32a8 8 0 0 0 0-16h-32a8 8 0 0 0 0 16z"></path><path d="m192 160h48a8 8 0 0 0 0-16h-48a8 8 0 0 0 0 16z"></path><path d="m192 192h16a8 8 0 0 0 0-16h-16a8 8 0 0 0 0 16z"></path><path d="m400 152h-32a8 8 0 0 0 0 16h14.606l-34.286 40h-60.32a8 8 0 0 0 -6.946 4.031l-29.697 51.969h-43.357a8 8 0 0 0 0 16h48a8 8 0 0 0 6.946-4.031l29.697-51.969h59.357a8 8 0 0 0 6.074-2.794l33.926-39.58v10.374a8 8 0 0 0 16 0v-32a8 8 0 0 0 -8-8z"></path></g></svg>